<svg width="1365" height="288" viewBox="0 0 1365 288" fill="none" xmlns="http://www.w3.org/2000/svg">
<path d="M123 71.2968C101.853 84.8084 80.7664 98.4146 59.5048 111.743C55.7397 114.104 54.1779 116.456 54.2078 121.109C54.4681 161.588 54.3916 202.069 54.4151 242.549C54.4159 243.763 54.4152 244.978 54.4152 247C47.1742 242.432 40.4942 238.257 33.8536 234.02C23.5986 227.477 13.4327 220.792 3.08584 214.398C0.608948 212.868 0.00831524 211.192 0.0109704 208.461C0.0517398 166.442 -0.0525424 124.423 0.0386868 82.4035C0.0424723 80.6653 1.1561 78.2084 2.54776 77.3023C23.4412 63.6992 44.4646 50.2948 65.4781 36.8759C66.3371 36.3273 67.3996 36.0961 68.8156 36C85.9986 46.8793 102.744 57.4597 119.449 68.1022C120.774 68.9464 121.823 70.2218 123 71.2968Z" fill="#FBFBFB"/>
<path d="M250 198.684C250 209.329 247.714 214.119 239.515 219.226C204.734 240.889 170.455 263.357 135.981 285.513C134.735 286.315 133.37 286.932 131.382 288C131.243 285.838 131.07 284.391 131.068 282.943C131.019 249.491 130.946 216.038 131.062 182.586C131.069 180.619 132.07 177.806 133.558 176.824C150.009 165.966 167.978 154.746 184.578 144.113C184.578 162.524 184.499 181.565 184.499 200.022C191.222 199.197 193.853 196.458 193.859 190.59C193.868 182.882 193.695 175.168 193.981 167.471C194.047 165.674 195.179 163.22 196.615 162.279C212.979 151.557 233.324 137.527 249.815 127C249.815 150.683 250 175.314 250 198.684Z" fill="#4ACFC4"/>
<path d="M124.174 70.9782C122.684 69.8549 121.635 68.5818 120.31 67.739C103.606 57.1152 86.8625 46.5534 70 35.7106C71.5008 34.1387 73.0273 32.6725 74.776 31.5499C90.5651 21.4146 106.43 11.3956 122.171 1.18705C124.581 -0.376167 126.266 -0.403297 128.677 1.15226C164.991 24.5744 201.372 47.8919 237.716 71.2673C240.397 72.9921 242.914 74.9719 246 77.1869C241.802 80.0216 238.071 82.6387 234.243 85.1073C220.931 93.6931 207.55 102.174 194.286 110.833C192.041 112.298 190.485 112.444 188.125 110.927C168.845 98.5436 149.465 86.3134 130.095 74.0703C128.302 72.9368 126.359 72.0368 124.174 70.9782Z" fill="#4ACFC4"/>
<path d="M117.931 198.756C117.93 228.607 117.93 257.993 117.93 288C116.55 287.25 115.392 286.721 114.334 286.032C98.3647 275.636 82.3819 265.262 66.5012 254.727C65.2732 253.912 64.0625 251.942 64.0583 250.504C63.954 215.238 64.0134 179.971 64.0547 144.704C64.0552 144.27 64.2006 143.836 64.3502 143C70.2285 146.819 75.9263 150.471 81.5749 154.201C92.7704 161.594 103.993 168.947 115.052 176.547C116.475 177.525 117.689 179.827 117.801 181.594C118.153 187.14 117.931 192.723 117.931 198.756Z" fill="#FBFBFB"/>
<path d="M574.317 171.538C572.913 173.562 571.711 175.29 570.097 177.611C561.093 163.088 552.383 149.038 543.673 134.989C543.359 135.049 543.044 135.11 542.729 135.17C542.729 153.992 542.729 172.814 542.729 191.974C536.895 191.974 531.676 191.974 526.177 191.974C526.177 163.207 526.177 134.302 526.177 105.053C531.605 105.053 536.929 104.845 542.215 105.196C543.583 105.286 545.234 106.877 546.075 108.208C553.63 120.167 561.03 132.223 568.485 144.245C569.346 145.634 570.264 146.989 571.379 148.704C579.767 135.048 587.991 121.796 596.033 108.434C597.395 106.171 598.699 105.13 601.477 105.307C606.274 105.613 611.104 105.392 616.352 105.392C616.352 134.287 616.352 162.839 616.352 191.723C611.195 191.723 605.947 191.723 599.933 191.723C599.933 172.869 599.933 153.863 599.933 134.856C599.421 134.689 598.909 134.522 598.397 134.356C590.437 146.651 582.478 158.946 574.317 171.538Z" fill="#FBFBFB"/>
<path d="M667.667 112.362C675.113 124.39 682.345 136.122 690.014 148.561C691.204 146.658 692.129 145.204 693.03 143.735C700.338 131.824 707.559 119.858 715.053 108.066C715.951 106.653 718.279 105.533 720.03 105.4C724.797 105.036 729.609 105.275 734.736 105.275C734.736 134.237 734.736 162.832 734.736 191.781C729.737 191.781 724.496 191.781 718.669 191.781C718.669 172.944 718.669 153.927 718.669 134.91C718.283 134.778 717.896 134.647 717.51 134.515C708.221 148.631 698.931 162.748 689.148 177.615C679.895 162.727 671.195 148.728 662.494 134.73C662.146 134.831 661.797 134.933 661.448 135.034C661.448 153.87 661.448 172.706 661.448 191.771C655.645 191.771 650.397 191.771 644.887 191.771C644.887 162.989 644.887 134.232 644.887 105.317C648.595 105.317 652.153 105.764 655.551 105.219C661.594 104.251 665.378 106.492 667.667 112.362Z" fill="#FBFBFB"/>
<path d="M413.336 136.502C419.892 116.451 435.357 104.501 455.127 103.933C476.611 103.315 493.582 113.669 500.524 131.63C510.325 156.985 496.821 184.51 470.852 192.108C444.118 199.931 417.319 184.854 412.668 158.652C411.424 151.648 412.949 144.152 413.336 136.502ZM467.829 176.821C481.687 170.222 488.393 158.413 485.966 143.62C484.096 132.227 477.74 123.857 466.339 120.738C454.581 117.521 443.816 119.652 435.628 129.54C427.065 139.882 426.512 154.948 434.104 166.321C441.401 177.251 453.281 181.127 467.829 176.821Z" fill="#FBFBFB"/>
<path d="M341.755 107.912C361.58 99.4008 385.126 103.755 396.836 118C393.556 121.663 390.255 125.349 386.758 129.254C378.966 121.722 369.632 118.446 359.007 119.406C352.196 120.022 346.15 122.57 341.533 127.978C330.895 140.438 331.757 159.366 343.167 171.201C351.464 179.808 370.606 183.621 386.446 168.12C390.006 171.493 393.578 174.877 397.144 178.256C389.076 190.565 368.575 197.08 350.896 192.996C332.707 188.796 319.49 174.305 317.107 155.954C314.433 135.36 323.287 117.921 341.755 107.912Z" fill="#FBFBFB"/>
<path d="M1083.27 114.268C1061.33 112.427 1046.73 121.929 1042.39 140.548C1038.89 155.574 1044.25 170.764 1055.86 178.695C1067.09 186.371 1086.56 186.341 1098 178.423C1099.25 177.556 1100.38 175.59 1100.45 174.087C1100.71 167.609 1100.56 161.114 1100.56 153.869C1096.17 153.869 1091.76 153.869 1087.35 153.869C1083.03 153.869 1078.71 153.869 1074.07 153.869C1074.07 151.001 1074.07 148.245 1074.07 145.054C1079.94 145.054 1085.86 145.054 1091.77 145.054C1097.73 145.054 1103.69 145.054 1109.89 145.054C1109.89 156.423 1109.96 167.404 1109.8 178.382C1109.78 179.587 1108.75 181.156 1107.71 181.912C1090.71 194.351 1072.5 197.241 1053.32 187.591C1030.41 176.064 1024.33 141.641 1041.27 121.015C1057.85 100.826 1087.2 98.7694 1107.82 116.617C1105.76 119.078 1103.7 121.545 1101.45 124.234C1096.64 118.526 1090.56 115.691 1083.27 114.268Z" fill="#FBFBFB"/>
<path d="M1192.74 115.35C1176.62 115.343 1160.96 115.343 1145.02 115.343C1145.02 124.575 1145.02 133.671 1145.02 143.237C1161.11 143.237 1177.18 143.237 1193.5 143.237C1193.5 146.45 1193.5 149.203 1193.5 152.322C1177.32 152.322 1161.23 152.322 1144.93 152.322C1144.93 162.317 1144.93 171.952 1144.93 182.009C1162.94 182.009 1181.02 182.009 1199.46 182.009C1199.46 185.156 1199.46 187.895 1199.46 190.933C1178.27 190.933 1157.02 190.933 1135.41 190.933C1135.41 162.902 1135.41 134.829 1135.41 106.429C1156.32 106.429 1177.39 106.429 1198.84 106.429C1198.84 109.047 1198.84 111.939 1198.84 115.356C1197.08 115.356 1195.14 115.356 1192.74 115.35Z" fill="#FBFBFB"/>
<path d="M845.093 190.825C839.748 191.677 834.433 192.103 828.796 192.555C828.796 168.501 828.796 145.06 828.796 121.185C819.446 121.185 810.363 121.185 801.048 121.185C801.048 115.805 801.048 110.858 801.048 105.693C825 105.693 848.863 105.693 872.964 105.693C872.964 110.785 872.964 115.567 872.964 120.781C863.853 120.781 854.782 120.781 845.124 120.781C845.124 144.27 845.124 167.335 845.093 190.825Z" fill="#FBFBFB"/>
<path d="M895.029 157.16C895.029 140.042 895.029 123.424 895.029 105.459C909.959 106.261 924.774 105.442 938.895 108.189C960.781 112.446 973.085 131.425 970.976 153.764C969.014 174.558 952.411 189.768 929.622 190.932C918.353 191.508 907.031 191.032 895.029 191.032C895.029 179.82 895.029 168.74 895.029 157.16ZM936.266 181.25C952.646 176.434 962.284 163.782 961.646 147.932C961.017 132.325 950.805 118.981 935.894 116.493C925.702 114.793 915.162 115.185 904.511 114.627C904.511 137.687 904.511 159.758 904.511 182.784C914.975 182.326 925.206 181.879 936.266 181.25Z" fill="#FBFBFB"/>
<path d="M1277.39 155.805C1285.36 168.275 1281.57 182.454 1268.6 189.09C1259.28 193.86 1249.41 194.231 1239.4 191.736C1230.7 189.568 1223.05 185.349 1216.07 179.274C1218.06 176.754 1219.98 174.327 1222.22 171.502C1228.29 177.678 1235.11 182.684 1243.62 183.43C1249.76 183.968 1256.25 183.519 1262.24 182.094C1268.57 180.589 1271.28 175.92 1271.38 169.912C1271.49 163.671 1269.07 159.591 1262.82 157.265C1257.23 155.186 1251.36 153.875 1245.61 152.229C1242.41 151.315 1239.15 150.578 1236.03 149.47C1224.5 145.386 1219.37 138.516 1219.67 127.812C1219.96 117.11 1226.35 108.863 1237.56 105.989C1252.8 102.08 1266.41 105.867 1278.78 115.931C1276.84 118.56 1275.1 120.929 1273.11 123.633C1267.18 117.861 1260.19 114.244 1252.27 113.791C1247.15 113.498 1241.66 114.361 1236.8 116.04C1231.75 117.782 1229.25 122.45 1229.22 127.932C1229.18 133.412 1232.22 137.242 1237.07 139.031C1243.76 141.497 1250.69 143.338 1257.55 145.329C1264.78 147.428 1272.01 149.461 1277.39 155.805Z" fill="#FBFBFB"/>
<path d="M780.296 183.074C780.298 186.207 780.298 188.854 780.298 191.777C774.766 191.777 769.512 191.777 763.949 191.777C763.949 163.22 763.949 134.627 763.949 105.749C769.282 105.749 774.538 105.749 780.293 105.749C780.293 131.358 780.293 156.973 780.296 183.074Z" fill="#FBFBFB"/>
<path d="M1328 106.152C1340.3 106.151 1352.11 106.151 1364.14 106.151C1364.14 109.18 1364.14 111.96 1364.14 115.256C1354.3 115.256 1344.57 115.256 1334.46 115.256C1334.46 140.848 1334.46 165.931 1334.46 191.229C1331.13 191.229 1328.19 191.229 1324.83 191.229C1324.83 166.146 1324.83 141.063 1324.83 115.617C1314.99 115.617 1305.56 115.617 1295.73 115.617C1295.73 112.4 1295.73 109.534 1295.73 106.152C1306.3 106.152 1316.9 106.152 1328 106.152Z" fill="#FBFBFB"/>
<path d="M998.624 191.468C997.722 190.784 996.823 190.101 996.821 189.417C996.75 161.79 996.761 134.163 996.761 106.284C999.61 106.284 1002.56 106.284 1005.81 106.284C1005.81 134.494 1005.81 162.708 1005.81 191.47C1003.61 191.47 1001.33 191.47 998.624 191.468Z" fill="#FBFBFB"/>
</svg>
